# xmcd
#
# Track frame offsets:
#	150
#	10795
#	26001
#	43649
#	52517
#	65712
#	78762
#	88993
#	104536
#	115701
#	126205
#	142289
#	157175
#
# Disc length: 2238 seconds
#
# Revision: 0
# Processed by: cddbd v1.5.2PL0 Copyright (c) Steve Scherf et al.
# Submitted via: EasyCDDAExtractor 15.3.0.1
#
DISCID=ad08bc0d
DTITLE=Bean Creek - Dirty Water
DYEAR=2003
DGENRE=Bluegrass
TTITLE0=You Go To Your Church And I'll Go To Mine
TTITLE1=Dirty Water
TTITLE2=I've Just Seen The Rock Of Ages
TTITLE3=I'm Lost And I'll Never Find The Way
TTITLE4=Hill O' Beans
TTITLE5=Losin' You
TTITLE6=My Dixie Darlin'
TTITLE7=My Main Trial Is Yet To Come
TTITLE8=Bootleg John
TTITLE9=Highway 68
TTITLE10=Doin' My Time
TTITLE11=I'm Blue  I'm Lonesome
TTITLE12=Made My Decision
EXTD=
EXTT0=
EXTT1=
EXTT2=
EXTT3=
EXTT4=
EXTT5=
EXTT6=
EXTT7=
EXTT8=
EXTT9=
EXTT10=
EXTT11=
EXTT12=
PLAYORDER=
